<?xml version="1.0" encoding="UTF-8"?>
<svg xmlns="http://www.w3.org/2000/svg" id="Layer_1" data-name="Layer 1" viewBox="0 0 24 24">
  <path d="M18.574,13.921c-1.033,0-1.882,.172-2.55,.519-.549-.406-1.488-1.139-2.594-2.161,.568-.59,1.152-1.237,1.734-1.94,3.223-3.894,4.716-7.463,4.777-7.613,.211-.51-.031-1.094-.542-1.306-.509-.21-1.095,.031-1.306,.542-.015,.034-1.45,3.454-4.471,7.102-.543,.656-1.09,1.262-1.623,1.815-.532-.553-1.079-1.159-1.623-1.815C7.356,5.416,5.921,1.996,5.906,1.962c-.211-.511-.803-.749-1.306-.542-.511,.211-.753,.795-.542,1.306,.062,.15,1.555,3.719,4.777,7.613,.582,.703,1.166,1.35,1.734,1.939-1.105,1.021-2.044,1.754-2.594,2.162-.668-.347-1.517-.519-2.549-.519-2.937,0-4.426,1.47-4.426,4.368,0,2.938,1.447,4.367,4.426,4.367,2.937,0,4.426-1.469,4.426-4.367,0-.961-.155-1.761-.468-2.402,.623-.47,1.549-1.211,2.616-2.203,1.067,.992,1.993,1.733,2.616,2.203-.313,.641-.468,1.441-.468,2.402,0,2.898,1.489,4.367,4.426,4.367,2.979,0,4.426-1.429,4.426-4.367,0-2.898-1.489-4.368-4.426-4.368Zm-13.148,6.735c-1.644,0-2.426-.354-2.426-2.367,0-1.814,.566-2.368,2.426-2.368,1.644,0,2.426,.354,2.426,2.368,0,1.814-.566,2.367-2.426,2.367Zm13.148,0c-1.859,0-2.426-.553-2.426-2.367,0-2.013,.782-2.368,2.426-2.368,1.859,0,2.426,.553,2.426,2.368,0,2.013-.782,2.367-2.426,2.367Z"/>
</svg>
